<svg xmlns="http://www.w3.org/2000/svg" viewBox="0 0 512 512" xml:space="preserve"><path d="M327.96 159.28c-.941.354-23.349 8.795-48.075 19.317-46.804 19.917-59.488 29.154-65.312 34.977-23.394 23.394-23.394 61.458 0 84.853 11.698 11.696 27.063 17.545 42.427 17.545s30.729-5.849 42.427-17.545c5.822-5.822 15.06-18.507 34.977-65.311 10.521-24.727 18.963-47.134 19.316-48.076a19.999 19.999 0 0 0-25.76-25.76zm-56.818 110.862c-7.797 7.798-20.486 7.798-28.283 0-7.799-7.798-7.799-20.486-.01-28.274 5.24-5.077 28.86-16.393 56.278-27.993-11.598 27.416-22.909 51.028-27.985 56.267z"/><path d="M437.02 74.98C388.667 26.629 324.38 0 256 0S123.333 26.629 74.98 74.98C26.629 123.333 0 187.62 0 256s26.629 132.667 74.98 181.02C123.333 485.371 187.62 512 256 512c46.812 0 92.616-12.757 132.462-36.893 9.447-5.723 12.467-18.021 6.744-27.468-5.724-9.449-18.021-12.467-27.469-6.745C334.143 461.244 295.504 472 256 472c-60.386 0-115.053-24.919-154.288-65H449c.471 0 .932-.038 1.395-.07 6.987.556 14.06-2.573 18.231-8.813C497.002 355.674 512 306.531 512 256c0-68.38-26.629-132.667-74.98-181.02zm3.983 292.021H72c-.403 0-.796.037-1.193.06C54.508 339.983 43.984 309.059 40.935 276H70c11.046 0 20-8.954 20-20s-8.954-20-20-20H40.935c4.111-44.566 21.809-85.254 48.916-117.866l20.487 20.486a19.936 19.936 0 0 0 14.142 5.857 19.94 19.94 0 0 0 14.143-5.858c7.811-7.811 7.81-20.474-.001-28.285L118.134 89.85c32.612-27.107 73.3-44.804 117.866-48.916V70c0 11.046 8.954 20 20 20s20-8.954 20-20V40.934c44.566 4.111 85.254 21.809 117.866 48.916l-20.486 20.485c-7.811 7.811-7.812 20.474-.001 28.285a19.935 19.935 0 0 0 14.143 5.858 19.942 19.942 0 0 0 14.142-5.857l20.487-20.486c27.107 32.612 44.804 73.299 48.916 117.866H442c-11.046 0-20 8.954-20 20s8.954 20 20 20h29.063c-3.007 32.058-13.232 63.048-30.06 91z"/></svg>