<svg xmlns="http://www.w3.org/2000/svg" viewBox="0 0 512 512" xml:space="preserve"><path d="M401.257 110.967a101.25 101.25 0 0 0-34.301 5.888c.085-1.963.171-3.925.171-5.888 0-56.546-45.846-102.391-102.391-102.391S162.343 54.421 162.343 110.967c-.017 4.454.265 8.9.853 13.311a73.511 73.511 0 0 0-26.451-4.778c-36.52 0-67.996 25.726-75.258 61.52-36.707 8.584-59.515 45.3-50.931 82.007 7.219 30.88 34.753 52.723 66.461 52.723h324.24c2.901 0 5.717-.085 8.533-.341 56.358-4.616 98.313-54.037 93.697-110.404-4.353-53.201-48.85-94.132-102.23-94.038z" fill="#78b9eb"/><path d="M255.836 399.618c-8.284 0-15 6.716-15 15v32.133c.793 19.902 29.215 19.887 30 0v-32.133c0-8.284-6.715-15-15-15zm-128.533 0c-8.284 0-15 6.716-15 15v32.133c.793 19.902 29.215 19.887 30 0v-32.133c0-8.284-6.716-15-15-15zm257.067 0c-8.284 0-15 6.716-15 15v32.133c.793 19.902 29.215 19.887 30 0v-32.133c0-8.284-6.716-15-15-15zm-321.333-48.2c-8.284 0-15 6.716-15 15v32.133c.793 19.902 29.215 19.887 30 0v-32.133c0-8.284-6.716-15-15-15zm257.066 0c-8.284 0-15 6.716-15 15v32.133c.793 19.902 29.215 19.887 30 0v-32.133c0-8.284-6.716-15-15-15zm-128.533 0c-8.284 0-15 6.716-15 15v32.133c.793 19.902 29.215 19.887 30 0v-32.133c0-8.284-6.716-15-15-15zm257.066 0c-8.284 0-15 6.716-15 15v32.133c.793 19.902 29.215 19.887 30 0v-32.133c0-8.284-6.716-15-15-15zm-47.379-27.136H77.017C34.601 324.291.215 289.921.198 247.514c-.009-33.704 21.954-63.466 54.157-73.406 10.103-37.202 43.841-63.056 82.391-63.141a84.794 84.794 0 0 1 17.065 1.707v-1.707C153.785 49.711 203.428.026 264.683 0c59.14-.026 107.904 46.358 110.83 105.421 59.643-13.993 119.337 23.004 133.331 82.647s-23.004 119.337-82.647 133.331a110.77 110.77 0 0 1-15.7 2.517c-3.003.272-6.075.366-9.24.366zm-264.512-196.25c-32.441.06-60.377 22.893-66.887 54.677a8.537 8.537 0 0 1-6.442 6.621c-32.125 7.517-52.075 39.643-44.557 71.768 6.323 27.014 30.41 46.119 58.158 46.127h324.24c2.637 0 5.196-.068 7.756-.307 51.665-4.19 90.156-49.472 85.966-101.137-3.959-48.798-44.762-86.359-93.722-86.273a92.522 92.522 0 0 0-31.417 5.384 8.526 8.526 0 0 1-10.913-5.145 8.477 8.477 0 0 1-.495-3.259c.085-1.843.162-3.678.162-5.512 0-51.836-42.023-93.859-93.859-93.859s-93.859 42.023-93.859 93.859a89.111 89.111 0 0 0 .776 12.15c.64 4.667-2.62 8.976-7.295 9.616a8.505 8.505 0 0 1-4.232-.495 64.607 64.607 0 0 0-23.38-4.215z" fill="#231f20"/></svg>