<svg xmlns="http://www.w3.org/2000/svg" width="512" height="512" viewBox="0 0 128 128"><path d="M113.562 35.093a16.774 16.774 0 0 1-5.138-.809l-4.524-1.452a8.9 8.9 0 0 0-5.473 0l-3.414 1.1a20.3 20.3 0 0 1-12.486 0l-3.412-1.1a8.9 8.9 0 0 0-5.474 0l-4.511 1.449a16.685 16.685 0 0 1-10.285 0l-4.5-1.448a8.913 8.913 0 0 0-5.48 0l-3.4 1.094a20.3 20.3 0 0 1-12.493 0l-3.4-1.094a8.9 8.9 0 0 0-5.477 0l-3.409 1.094a20.291 20.291 0 0 1-12.489 0l-4.476-1.434a5.365 5.365 0 0 1-3.463-6.741l.227-.709a5.366 5.366 0 0 1 6.742-3.463l4.463 1.434a8.911 8.911 0 0 0 5.477 0l3.409-1.095a20.291 20.291 0 0 1 12.489 0l3.406 1.095a8.906 8.906 0 0 0 5.478 0l3.405-1.094a20.306 20.306 0 0 1 12.5 0l3.4 1.093a8.9 8.9 0 0 0 5.478 0l3.41-1.1a20.3 20.3 0 0 1 12.486 0l3.409 1.1a8.923 8.923 0 0 0 5.481 0l3.41-1.1a20.29 20.29 0 0 1 12.484 0l3.418 1.1a8.907 8.907 0 0 0 5.476 0l4.472-1.437a5.367 5.367 0 0 1 6.742 3.464l.227.709a5.365 5.365 0 0 1-3.464 6.741l-5.583 1.794a16.777 16.777 0 0 1-5.138.809Zm-12.4-6.193a12.44 12.44 0 0 1 3.807.6l4.521 1.452a13.29 13.29 0 0 0 8.138 0l5.576-1.791a1.861 1.861 0 0 0 1.2-2.339l-.227-.708a1.861 1.861 0 0 0-2.339-1.2l-4.473 1.436a12.384 12.384 0 0 1-7.616 0l-3.418-1.1a16.821 16.821 0 0 0-10.344 0l-3.41 1.095a12.385 12.385 0 0 1-7.621 0l-3.409-1.095a16.82 16.82 0 0 0-10.346 0L67.8 26.346a12.394 12.394 0 0 1-7.619 0l-3.4-1.093a16.816 16.816 0 0 0-10.354 0l-3.406 1.094a12.394 12.394 0 0 1-7.619 0L32 25.252a16.822 16.822 0 0 0-10.349 0l-3.409 1.095a12.373 12.373 0 0 1-7.617 0l-4.468-1.435a1.862 1.862 0 0 0-2.34 1.2l-.227.708a1.861 1.861 0 0 0 1.2 2.339L9.254 30.6a16.819 16.819 0 0 0 10.348 0l3.41-1.094a12.373 12.373 0 0 1 7.617 0l3.4 1.094a16.835 16.835 0 0 0 10.353 0l3.4-1.094a12.367 12.367 0 0 1 7.62 0l4.5 1.447a13.217 13.217 0 0 0 8.143 0l4.513-1.45a12.366 12.366 0 0 1 7.615 0L83.6 30.6a16.813 16.813 0 0 0 10.344 0l3.414-1.1a12.436 12.436 0 0 1 3.808-.6ZM113.562 53.084a16.734 16.734 0 0 1-5.138-.809l-5.624-1.806a5.3 5.3 0 0 0-3.266 0l-4.514 1.45a20.31 20.31 0 0 1-12.5 0l-3.407-1.094a8.886 8.886 0 0 0-5.474 0l-3.409 1.094a20.3 20.3 0 0 1-12.495 0l-3.4-1.092a8.888 8.888 0 0 0-5.479 0l-3.4 1.094a20.315 20.315 0 0 1-12.492 0l-3.4-1.094a8.917 8.917 0 0 0-5.479 0l-4.509 1.448a16.771 16.771 0 0 1-5.013.81 5.308 5.308 0 0 1-4.329-2.176 5.4 5.4 0 0 1-.788-4.831l.242-.751a5.286 5.286 0 0 1 4.873-3.708 5.294 5.294 0 0 0 1.507-.257l4.51-1.448a20.283 20.283 0 0 1 12.491 0l3.407 1.094a8.914 8.914 0 0 0 5.478 0l3.405-1.094a20.3 20.3 0 0 1 12.5 0l3.4 1.092a8.9 8.9 0 0 0 5.479 0l3.411-1.1a20.293 20.293 0 0 1 12.485 0l3.411 1.1a8.9 8.9 0 0 0 5.477 0l3.409-1.095a20.294 20.294 0 0 1 12.49 0l4.519 1.45a5.371 5.371 0 0 0 1.507.257 5.29 5.29 0 0 1 4.873 3.709l.258.806a5.383 5.383 0 0 1-.772 4.8 5.144 5.144 0 0 1-4.18 2.153Zm-12.4-6.374a8.832 8.832 0 0 1 2.706.427l5.624 1.806a13.266 13.266 0 0 0 4.068.641h.047a1.664 1.664 0 0 0 1.355-.711 1.849 1.849 0 0 0 .271-1.67l-.258-.807a1.791 1.791 0 0 0-1.625-1.279 8.844 8.844 0 0 1-2.5-.424l-4.517-1.45a16.825 16.825 0 0 0-10.35 0l-3.409 1.095a12.373 12.373 0 0 1-7.617 0l-3.411-1.1a16.817 16.817 0 0 0-10.345 0l-3.41 1.1a12.378 12.378 0 0 1-7.621 0l-3.4-1.092a16.816 16.816 0 0 0-10.354 0L43.01 44.34a12.379 12.379 0 0 1-7.619 0l-3.406-1.094a16.818 16.818 0 0 0-10.35 0l-4.509 1.448a8.827 8.827 0 0 1-2.5.424 1.788 1.788 0 0 0-1.611 1.282l-.242.751a1.861 1.861 0 0 0 .278 1.689 1.8 1.8 0 0 0 1.466.748h.013a13.287 13.287 0 0 0 3.971-.642l4.509-1.448a12.372 12.372 0 0 1 7.619 0l3.4 1.094a16.839 16.839 0 0 0 10.352 0l3.4-1.094a12.382 12.382 0 0 1 7.62 0l3.4 1.092a16.838 16.838 0 0 0 10.354 0l3.408-1.094a12.366 12.366 0 0 1 7.615 0l3.422 1.09a16.842 16.842 0 0 0 10.353 0l4.513-1.449a8.761 8.761 0 0 1 2.698-.427ZM63.989 71.077a16.783 16.783 0 0 1-5.143-.812l-4.5-1.448a8.913 8.913 0 0 0-5.48 0l-3.4 1.095a20.289 20.289 0 0 1-12.493 0l-3.4-1.094a8.911 8.911 0 0 0-5.477 0l-3.409 1.095a20.306 20.306 0 0 1-12.489 0l-4.477-1.436a5.366 5.366 0 0 1-3.463-6.742l.227-.709a5.369 5.369 0 0 1 6.742-3.463L11.69 59a8.911 8.911 0 0 0 5.477 0l3.409-1.1a20.291 20.291 0 0 1 12.489 0L36.47 59a8.9 8.9 0 0 0 5.479 0l3.407-1.1a20.3 20.3 0 0 1 12.492 0l3.4 1.1a8.9 8.9 0 0 0 5.48 0l3.409-1.1a20.282 20.282 0 0 1 12.486 0l3.411 1.1a8.911 8.911 0 0 0 5.477 0l3.409-1.1a20.3 20.3 0 0 1 12.49 0l3.415 1.1a8.893 8.893 0 0 0 5.476 0l4.472-1.436a5.366 5.366 0 0 1 6.742 3.464l.227.708a5.366 5.366 0 0 1-3.464 6.742l-5.578 1.79a16.8 16.8 0 0 1-10.278 0l-4.522-1.453a8.9 8.9 0 0 0-5.473 0l-3.414 1.1a20.3 20.3 0 0 1-12.486 0l-3.412-1.1a8.9 8.9 0 0 0-5.474 0l-4.513 1.45a16.756 16.756 0 0 1-5.139.812Zm37.177-6.194a12.44 12.44 0 0 1 3.807.6l4.521 1.452a13.282 13.282 0 0 0 8.138 0l5.576-1.79a1.861 1.861 0 0 0 1.2-2.339l-.227-.709a1.863 1.863 0 0 0-2.339-1.2l-4.473 1.436a12.369 12.369 0 0 1-7.616 0l-3.415-1.1a16.825 16.825 0 0 0-10.35 0l-3.407 1.097a12.373 12.373 0 0 1-7.617 0l-3.411-1.1a16.82 16.82 0 0 0-10.346 0L67.8 62.329a12.385 12.385 0 0 1-7.621 0l-3.4-1.093a16.81 16.81 0 0 0-10.35 0l-3.41 1.094a12.382 12.382 0 0 1-7.62 0L32 61.235a16.837 16.837 0 0 0-10.349 0l-3.409 1.1a12.387 12.387 0 0 1-7.617 0L6.157 60.9a1.869 1.869 0 0 0-2.34 1.2l-.227.708a1.862 1.862 0 0 0 1.2 2.339l4.463 1.434a16.826 16.826 0 0 0 10.348 0l3.41-1.095a12.373 12.373 0 0 1 7.617 0l3.4 1.094a16.82 16.82 0 0 0 10.353 0l3.4-1.095a12.375 12.375 0 0 1 7.62 0l4.5 1.448a13.21 13.21 0 0 0 8.143 0l4.513-1.45a12.381 12.381 0 0 1 7.615 0l3.413 1.1a16.813 16.813 0 0 0 10.344 0l3.414-1.1a12.436 12.436 0 0 1 3.823-.6ZM113.562 89.068a16.764 16.764 0 0 1-5.138-.809l-4.524-1.452a8.886 8.886 0 0 0-5.474 0L95.019 87.9a20.3 20.3 0 0 1-12.491 0l-3.414-1.095a8.879 8.879 0 0 0-5.474 0L70.234 87.9a20.292 20.292 0 0 1-12.494 0l-3.4-1.092a8.909 8.909 0 0 0-5.481 0l-3.4 1.094a20.3 20.3 0 0 1-12.492 0l-3.4-1.094a8.924 8.924 0 0 0-5.479 0l-4.509 1.449a16.781 16.781 0 0 1-5.014.809h-.043a5.268 5.268 0 0 1-4.284-2.175 5.4 5.4 0 0 1-.789-4.832l.242-.751a5.289 5.289 0 0 1 4.865-3.708 5.346 5.346 0 0 0 1.508-.256l4.508-1.444a20.3 20.3 0 0 1 12.493 0l3.406 1.094a8.9 8.9 0 0 0 5.478 0l3.406-1.094a20.3 20.3 0 0 1 12.5 0l3.4 1.093a8.9 8.9 0 0 0 5.479 0l3.4-1.094a20.329 20.329 0 0 1 12.494 0l3.41 1.095a8.9 8.9 0 0 0 5.479 0l3.402-1.094a20.3 20.3 0 0 1 12.489 0l4.521 1.451a5.327 5.327 0 0 0 1.506.256 5.291 5.291 0 0 1 4.874 3.709l.258.807a5.383 5.383 0 0 1-.772 4.8 5.144 5.144 0 0 1-4.18 2.153Zm-12.4-6.193a12.435 12.435 0 0 1 3.807.6l4.522 1.452a13.3 13.3 0 0 0 4.068.641h.047a1.666 1.666 0 0 0 1.355-.711 1.851 1.851 0 0 0 .271-1.671l-.258-.806a1.791 1.791 0 0 0-1.626-1.28 8.825 8.825 0 0 1-2.494-.423l-4.519-1.451a16.829 16.829 0 0 0-10.349 0L92.58 80.32a12.379 12.379 0 0 1-7.619 0l-3.41-1.095a16.845 16.845 0 0 0-10.354 0l-3.4 1.094a12.371 12.371 0 0 1-7.621 0l-3.4-1.093a16.809 16.809 0 0 0-10.352 0l-3.407 1.094a12.379 12.379 0 0 1-7.619 0L32 79.227a16.824 16.824 0 0 0-10.352 0l-4.508 1.449a8.873 8.873 0 0 1-2.5.423 1.789 1.789 0 0 0-1.625 1.279l-.242.751a1.861 1.861 0 0 0 .278 1.689 1.8 1.8 0 0 0 1.465.748h.014a13.259 13.259 0 0 0 3.971-.641l4.509-1.449a12.379 12.379 0 0 1 7.619 0l3.4 1.094a16.839 16.839 0 0 0 10.352 0l3.4-1.094a12.378 12.378 0 0 1 7.621 0l3.4 1.092a16.82 16.82 0 0 0 10.353 0l3.405-1.094a12.362 12.362 0 0 1 7.616 0L83.6 84.57a16.815 16.815 0 0 0 10.349 0l3.408-1.094a12.418 12.418 0 0 1 3.808-.601ZM63.989 107.06a16.753 16.753 0 0 1-5.143-.812l-4.5-1.448a8.913 8.913 0 0 0-5.48 0l-3.4 1.094a20.289 20.289 0 0 1-12.493 0l-3.4-1.094a8.919 8.919 0 0 0-5.482 0l-3.418 1.1a20.291 20.291 0 0 1-12.489 0l-4.463-1.44a5.365 5.365 0 0 1-3.463-6.742l.227-.708a5.369 5.369 0 0 1 6.742-3.463l4.463 1.434a8.911 8.911 0 0 0 5.477 0l3.409-1.095a20.306 20.306 0 0 1 12.489 0l3.406 1.094a8.884 8.884 0 0 0 5.478 0l3.405-1.094a20.3 20.3 0 0 1 12.5 0l3.4 1.092a8.9 8.9 0 0 0 5.478 0l3.41-1.1a20.3 20.3 0 0 1 12.486 0l3.409 1.1a8.909 8.909 0 0 0 5.481 0l3.41-1.1a20.29 20.29 0 0 1 12.484 0l3.418 1.1a8.893 8.893 0 0 0 5.476 0l4.472-1.436a5.36 5.36 0 0 1 6.742 3.464l.227.709a5.365 5.365 0 0 1-3.464 6.741l-5.576 1.791a16.788 16.788 0 0 1-10.278 0L103.9 104.8a8.922 8.922 0 0 0-5.476 0l-3.413 1.1a20.289 20.289 0 0 1-12.486 0l-3.412-1.1a8.9 8.9 0 0 0-5.474 0l-4.513 1.449a16.726 16.726 0 0 1-5.137.811Zm37.177-6.193a12.447 12.447 0 0 1 3.809.6l4.519 1.452a13.3 13.3 0 0 0 8.138 0l5.576-1.791a1.861 1.861 0 0 0 1.2-2.339l-.227-.708a1.86 1.86 0 0 0-2.339-1.2l-4.473 1.437a12.384 12.384 0 0 1-7.616 0l-3.418-1.1a16.821 16.821 0 0 0-10.344 0l-3.41 1.1a12.371 12.371 0 0 1-7.621 0l-3.409-1.1a16.82 16.82 0 0 0-10.346 0l-3.409 1.1a12.389 12.389 0 0 1-7.62 0l-3.4-1.093a16.816 16.816 0 0 0-10.354 0l-3.406 1.094a12.379 12.379 0 0 1-7.619 0L32 97.219a16.815 16.815 0 0 0-10.349 0l-3.409 1.095a12.373 12.373 0 0 1-7.617 0l-4.468-1.435a1.864 1.864 0 0 0-2.34 1.2l-.227.708a1.861 1.861 0 0 0 1.2 2.339l4.463 1.434a16.826 16.826 0 0 0 10.348 0l3.407-1.095a12.392 12.392 0 0 1 7.623 0l3.4 1.093a16.82 16.82 0 0 0 10.353 0l3.4-1.094a12.375 12.375 0 0 1 7.62 0l4.5 1.449a13.224 13.224 0 0 0 8.143 0l4.513-1.45a12.366 12.366 0 0 1 7.615 0l3.413 1.1a16.813 16.813 0 0 0 10.344 0l3.413-1.1a12.447 12.447 0 0 1 3.821-.596Z"/></svg>