<svg xmlns="http://www.w3.org/2000/svg" viewBox="0 0 511.999 511.999" xml:space="preserve"><path d="M400.887 226.148a101.21 101.21 0 0 0-34.286 5.885c.085-1.962.171-3.923.171-5.885 0-56.521-45.826-102.347-102.347-102.347s-102.347 45.826-102.347 102.347a97.644 97.644 0 0 0 .853 13.305 73.476 73.476 0 0 0-26.44-4.776c-36.478.085-67.89 25.757-75.225 61.494-36.691 8.58-59.489 45.28-50.909 81.972 7.215 30.866 34.738 52.7 66.432 52.7h324.099c2.9 0 5.714-.085 8.529-.341 56.334-4.614 98.27-54.014 93.656-110.356-4.35-53.178-48.829-94.092-102.186-93.998z" fill="#78b9eb"/><path d="M162.93 239.453a97.644 97.644 0 0 1-.853-13.305 101.783 101.783 0 0 1 29.169-71.643c-44.308-16.077-93.264 6.815-109.341 51.122a85.408 85.408 0 0 0-5.117 29.05 85.883 85.883 0 0 0 3.582 24.478 76.374 76.374 0 0 1 56.12-24.478 73.684 73.684 0 0 1 26.44 4.776z" fill="#342f31"/><path d="M400.887 217.619a110.648 110.648 0 0 0-25.723 2.985c-3.011-61.11-54.994-108.215-116.113-105.204a110.775 110.775 0 0 0-69.954 29.493c-49.468-15.037-101.759 12.879-116.795 62.346a93.552 93.552 0 0 0-1.271 49.835 84.758 84.758 0 0 0-16.879 32.188C13.64 301.757-9.064 344.734 3.431 385.238c9.928 32.18 39.677 54.133 73.357 54.133h324.099c3.164 0 6.235-.094 9.237-.367 61.033-4.972 106.475-58.483 101.503-119.516-4.699-57.638-52.905-101.988-110.74-101.869zm-238.81-59.702c4.657 0 9.305.418 13.885 1.245-1.058 1.39-2.004 2.849-2.985 4.264-.554.853-1.151 1.586-1.706 2.405a111.951 111.951 0 0 0-5.041 8.529c-.162.316-.299.648-.461.972a107.08 107.08 0 0 0-3.71 7.975c-.426 1.006-.785 2.047-1.177 3.07-.785 2.073-1.535 4.154-2.2 6.277a88.89 88.89 0 0 0-1.032 3.548 110.302 110.302 0 0 0-1.527 6.218c-.264 1.203-.529 2.405-.742 3.616-.409 2.235-.716 4.495-.989 6.763-.119 1.075-.29 2.132-.384 3.215-.273 3.369-.461 6.721-.461 10.132v1.706a84.87 84.87 0 0 0-17.058-1.706c-2.678 0-5.339.162-7.992.418-.853.077-1.62.196-2.439.299-1.876.23-3.736.52-5.586.853a92.78 92.78 0 0 0-2.559.52 85.395 85.395 0 0 0-5.859 1.552c-.614.179-1.237.333-1.842.529-2.482.81-4.921 1.706-7.309 2.755-.64.273-1.245.597-1.876.853a433.766 433.766 0 0 0-5.22 2.559 55.6 55.6 0 0 0-2.431 1.39 78.7 78.7 0 0 0-4.546 2.874c-.733.495-1.476.972-2.183 1.484-.29.205-.588.384-.853.589a78.598 78.598 0 0 1-.478-8.145c.052-42.371 34.39-76.708 76.761-76.759zm246.563 264.09c-2.559.239-5.117.307-7.753.307H76.788c-32.973 0-59.702-26.73-59.702-59.702 0-27.736 19.096-51.813 46.107-58.133a8.518 8.518 0 0 0 6.431-6.584c6.516-31.77 34.431-54.611 66.867-54.687a64.7 64.7 0 0 1 23.369 4.205 8.525 8.525 0 0 0 11.028-4.887 8.532 8.532 0 0 0 .495-4.23 89.048 89.048 0 0 1-.776-12.145c0-51.813 42.005-93.818 93.818-93.818s93.818 42.005 93.818 93.818c0 1.834-.077 3.667-.162 5.51-.205 4.708 3.437 8.691 8.145 8.896a8.453 8.453 0 0 0 3.258-.495 92.495 92.495 0 0 1 31.404-5.382c51.813-.094 93.895 41.834 93.989 93.648.093 48.936-37.46 89.73-86.237 93.679z" fill="#231f20"/></svg>