<svg xmlns="http://www.w3.org/2000/svg" viewBox="0 0 512 512" xml:space="preserve"><path d="M251.044 346.417a33.77 33.77 0 0 1 13.489-2.817 31.74 31.74 0 0 1 8.537 1.195c1.707.359 3.364.905 4.952 1.622-11.021-20.754-3.133-46.519 17.621-57.549a42.508 42.508 0 0 1 16.869-4.858 19.666 19.666 0 0 1 3.244-.171 42.055 42.055 0 0 1 17.33 3.671c.077-1.264.256-2.518.512-3.756a50.762 50.762 0 0 1 24.331-35.429c-5.071-52.495-49.191-92.552-101.934-92.543a98.767 98.767 0 0 0-23.733 2.817c-46.152 10.962-78.73 52.196-78.713 99.629 0 2.903.085 5.72.342 8.537 3.825 45.606 37.401 83.161 82.298 92.031a33.927 33.927 0 0 1 14.855-12.379z" fill="#342f31"/><path d="M232.263 158.599a24.73 24.73 0 0 0-1.622-2.476 42.142 42.142 0 0 0-10.074-9.818 41.838 41.838 0 0 0-21.087-7.427 19.666 19.666 0 0 0-3.244-.171 42.055 42.055 0 0 0-17.33 3.671 26.516 26.516 0 0 0-.512-3.756 51.662 51.662 0 0 0-7.427-19.209 50.907 50.907 0 0 0-27.148-20.831 48.745 48.745 0 0 0-15.879-2.561c-28.292 0-51.223 22.931-51.223 51.223a50.324 50.324 0 0 0 5.037 22.111 50.327 50.327 0 0 0-22.111-5.037c-28.292 0-51.223 22.931-51.223 51.223s22.931 51.223 51.223 51.223h94.25c-.256-2.817-.341-5.635-.341-8.537-.011-47.44 32.559-88.666 78.711-99.628zm220.088 150.852a50.324 50.324 0 0 0-22.111 5.037 50.324 50.324 0 0 0 5.037-22.111c0-28.292-22.931-51.223-51.223-51.223a48.767 48.767 0 0 0-15.879 2.561 48.444 48.444 0 0 0-10.245 4.61 50.764 50.764 0 0 0-24.331 35.429 26.536 26.536 0 0 0-.512 3.756 42.059 42.059 0 0 0-17.33-3.671 19.666 19.666 0 0 0-3.244.171 41.85 41.85 0 0 0-21.087 7.427c-17.74 12.294-23.503 35.899-13.403 54.979a24.043 24.043 0 0 0-4.952-1.622 31.71 31.71 0 0 0-8.537-1.195 34.24 34.24 0 0 0-28.343 15.196 32.896 32.896 0 0 0-5.635 15.196c-.085 1.281-.171 2.476-.171 3.756a33.933 33.933 0 0 0 16.818 29.368 33.49 33.49 0 0 0 17.33 4.781h187.818c28.292 0 51.223-22.931 51.223-51.223 0-28.291-22.931-51.222-51.223-51.222z" fill="#78b9eb"/><g fill="#231f20"><path d="M236.19 367.333a8.765 8.765 0 0 1-1.639-.154c-48.611-9.673-84.971-50.335-89.171-99.723-.273-2.988-.367-6.061-.367-9.229-.179-51.454 35.19-96.214 85.286-107.944a108.112 108.112 0 0 1 25.697-3.039c57.233-.239 105.169 43.275 110.437 100.269a8.529 8.529 0 0 1-4.183 8.17 42.24 42.24 0 0 0-20.233 29.504 20.568 20.568 0 0 0-.41 2.877c-.307 4.704-4.371 8.273-9.075 7.965a8.587 8.587 0 0 1-2.945-.734 36.164 36.164 0 0 0-14.684-2.92 5.594 5.594 0 0 0-.999.068 34.729 34.729 0 0 0-17.621 6.027 33.976 33.976 0 0 0-14.3 23.443 33.414 33.414 0 0 0-.376 4.61 33.662 33.662 0 0 0 3.936 15.854c2.228 4.158.674 9.331-3.483 11.559a8.555 8.555 0 0 1-7.504.282 15.986 15.986 0 0 0-3.159-1.059 25.56 25.56 0 0 0-6.864-1.024 25.67 25.67 0 0 0-21.198 11.337 8.535 8.535 0 0 1-7.145 3.861zm19.806-203.014a91.056 91.056 0 0 0-21.693 2.561c-42.413 9.903-72.37 47.791-72.216 91.348 0 2.638.068 5.191.307 7.752 3.364 39.903 31.596 73.317 70.372 83.297a42.88 42.88 0 0 1 14.863-10.689 42.23 42.23 0 0 1 17.621-3.526c-4.764-27.814 13.924-54.22 41.738-58.983a51.006 51.006 0 0 1 4.969-.606 25.647 25.647 0 0 1 3.799-.171 52 52 0 0 1 10.723 1.11 59.274 59.274 0 0 1 22.342-32.305c-6.779-45.989-46.34-80.001-92.825-79.788z"/><path d="M153.891 275.303h-94.25C26.636 275.234-.068 248.428 0 215.423s26.875-59.709 59.88-59.641c3.014.009 6.027.239 8.998.7-5.037-32.68 17.365-63.26 50.045-68.297a59.987 59.987 0 0 1 9.015-.7 57.124 57.124 0 0 1 18.671 3.022 59.295 59.295 0 0 1 38.887 40.782 43.515 43.515 0 0 1 15.367-.854 49.621 49.621 0 0 1 24.553 8.827 50.705 50.705 0 0 1 12.123 11.807c.743.999 1.426 2.04 2.049 3.125 2.416 4.047 1.101 9.288-2.954 11.704a8.82 8.82 0 0 1-2.407.982c-42.396 9.92-72.31 47.808-72.139 91.348 0 2.638.068 5.191.307 7.752.435 4.695-3.022 8.853-7.718 9.288a8.634 8.634 0 0 1-.82.034h.034zm-94.25-102.447c-23.571 0-42.686 19.115-42.686 42.686s19.115 42.686 42.686 42.686h85.372c-.171-46.323 28.6-87.83 72.037-103.932-.435-.333-.854-.657-1.332-.965a33.473 33.473 0 0 0-16.801-5.976 14.734 14.734 0 0 0-2.681-.111 33.397 33.397 0 0 0-13.83 2.92 8.528 8.528 0 0 1-11.286-4.286 8.593 8.593 0 0 1-.734-2.945 18.533 18.533 0 0 0-.341-2.561 43.585 43.585 0 0 0-6.249-16.349 42.328 42.328 0 0 0-22.547-17.305 40.34 40.34 0 0 0-13.309-2.16c-23.563.026-42.66 19.123-42.686 42.686a41.745 41.745 0 0 0 4.175 18.372 8.535 8.535 0 0 1-3.936 11.414 8.518 8.518 0 0 1-7.479 0 41.492 41.492 0 0 0-18.373-4.174zm392.71 247.579H264.533c-23.546-.06-42.626-19.14-42.686-42.686 0-1.451.085-2.8.179-4.269a41.792 41.792 0 0 1 7.146-19.567 42.733 42.733 0 0 1 36.078-18.85c-4.764-27.814 13.924-54.22 41.738-58.983a54.132 54.132 0 0 1 4.96-.606 25.769 25.769 0 0 1 3.808-.171 52 52 0 0 1 10.723 1.11 59.282 59.282 0 0 1 27.131-35.446 60.71 60.71 0 0 1 30.444-8.349c33.064.06 59.82 26.918 59.76 59.982a60.118 60.118 0 0 1-.7 9.015c32.621-5.037 63.141 17.322 68.178 49.942 5.037 32.621-17.322 63.141-49.942 68.178-2.972.46-5.985.691-8.999.7zm-187.818-68.298a25.67 25.67 0 0 0-21.198 11.337 24.469 24.469 0 0 0-4.269 11.423c0 .854-.12 1.793-.12 2.851a25.549 25.549 0 0 0 12.592 22 24.976 24.976 0 0 0 12.994 3.611H452.35c23.571 0 42.686-19.115 42.686-42.686s-19.115-42.686-42.686-42.686a41.5 41.5 0 0 0-18.372 4.175 8.535 8.535 0 0 1-11.414-3.936 8.525 8.525 0 0 1 0-7.479 41.759 41.759 0 0 0 4.175-18.372c-.026-23.563-19.123-42.66-42.686-42.686a39.886 39.886 0 0 0-13.087 2.092 40.458 40.458 0 0 0-8.682 3.884 42.211 42.211 0 0 0-20.267 29.522 20.568 20.568 0 0 0-.41 2.877c-.307 4.704-4.371 8.273-9.075 7.965a8.587 8.587 0 0 1-2.945-.734 36.297 36.297 0 0 0-14.684-2.92 5.594 5.594 0 0 0-.999.068 34.729 34.729 0 0 0-17.621 6.027 33.976 33.976 0 0 0-14.3 23.443 33.414 33.414 0 0 0-.376 4.61 33.662 33.662 0 0 0 3.936 15.854c2.228 4.158.674 9.331-3.483 11.559a8.555 8.555 0 0 1-7.504.282 15.986 15.986 0 0 0-3.159-1.059 25.36 25.36 0 0 0-6.864-1.022z"/></g></svg>