<svg xmlns="http://www.w3.org/2000/svg" viewBox="0 0 512.005 512.005" xml:space="preserve"><path d="M22.712 316.833C-.257 346.66 5.295 389.468 35.131 412.445a68.145 68.145 0 0 0 41.657 14.158h324.11c2.9 0 5.715-.085 8.529-.341 56.335-4.614 98.274-54.015 93.659-110.359-4.35-53.18-48.83-94.094-102.188-94a101.216 101.216 0 0 0-34.287 5.885c.085-1.962.171-3.923.171-5.885 0-47.755-33.017-89.164-79.578-99.792a58.05 58.05 0 0 0-5.544-1.024c-2.644-.512-5.288-.853-8.017-1.109-3.071-.256-6.141-.426-9.212-.426a102.27 102.27 0 0 0-73.181 30.705 96.421 96.421 0 0 0-16.376 22.091 2.973 2.973 0 0 1-.426.682v.085a97.706 97.706 0 0 0-8.273 19.958 103.416 103.416 0 0 0-3.497 17.997 90.207 90.207 0 0 0-.597 10.832 97.668 97.668 0 0 0 .853 13.306 73.477 73.477 0 0 0-26.441-4.776 76.876 76.876 0 0 0-33.093 7.506 82.475 82.475 0 0 0-9.638 5.544 45.862 45.862 0 0 0-5.203 3.923 75.753 75.753 0 0 0-8.188 7.506 69.648 69.648 0 0 0-6.738 8.273 76.064 76.064 0 0 0-12.367 28.743 64.562 64.562 0 0 0-14.244 5.117 68.681 68.681 0 0 0-15.353 10.235 63.003 63.003 0 0 0-8.957 9.554z" fill="#78b9eb"/><path d="M61.264 291.928a76.096 76.096 0 0 1 12.367-28.743 69.568 69.568 0 0 1 6.738-8.273 75.958 75.958 0 0 1 8.188-7.506 45.627 45.627 0 0 1 5.203-3.923 82.475 82.475 0 0 1 9.638-5.544 76.893 76.893 0 0 1 33.093-7.506 73.481 73.481 0 0 1 26.441 4.776 97.658 97.658 0 0 1-.853-13.306 90.207 90.207 0 0 1 .597-10.832c.631-6.09 1.8-12.111 3.497-17.997a97.66 97.66 0 0 1 8.273-19.958v-.085c.171-.205.316-.435.426-.682a96.443 96.443 0 0 1 16.376-22.091 102.269 102.269 0 0 1 73.181-30.705c3.07 0 6.141.171 9.212.426 2.729.256 5.373.597 8.017 1.109-17.903-33.085-59.235-45.392-92.32-27.498a68.115 68.115 0 0 0-35.447 54.024 58.61 58.61 0 0 0-34.458-11.003c-33.042.068-59.773 26.901-59.704 59.943a59.725 59.725 0 0 0 2.473 16.905 21.68 21.68 0 0 0-2.473-.085c-28.266.051-51.133 23.012-51.081 51.269a51.18 51.18 0 0 0 23.02 42.638 68.658 68.658 0 0 1 15.353-10.235 64.525 64.525 0 0 1 14.243-5.118z" fill="#41769e"/><path d="M400.898 213.374a110.789 110.789 0 0 0-25.733 2.985c-2.721-49.486-37.742-91.246-86-102.547-.776-.188-1.561-.341-2.337-.495-22.142-36.002-69.283-47.235-105.285-25.093a76.545 76.545 0 0 0-33.963 45.896c-34.373-15.515-74.818-.23-90.333 34.142a68.281 68.281 0 0 0-6.047 28.053c0 3.028.196 6.056.589 9.058C19.165 209.68-3.787 239.609.52 272.233a59.536 59.536 0 0 0 18.474 35.814c-1.032 1.186-2.098 2.354-3.036 3.599A75.897 75.897 0 0 0 .025 358.37c.051 42.373 34.39 76.712 76.763 76.763h324.11c3.164 0 6.235-.094 9.229-.367 61.035-4.973 106.479-58.485 101.506-119.52-4.7-57.64-52.907-101.992-110.735-101.872zm-341.169 8.529h.665a7.14 7.14 0 0 1 .853 0 8.46 8.46 0 0 0 7.48-3.019 8.513 8.513 0 0 0 1.612-7.89 52.13 52.13 0 0 1-2.081-14.679c.026-28.249 22.927-51.15 51.175-51.175a50.106 50.106 0 0 1 29.477 9.382c3.821 2.746 9.152 1.876 11.907-1.945a8.478 8.478 0 0 0 1.569-4.248c3.011-32.078 30.816-56.054 62.988-54.314a59.047 59.047 0 0 1 38.202 17.007c-.537 0-1.058.085-1.595.094h-.341c-3.966.102-7.924.418-11.856.938l-.461.077c-3.847.52-7.659 1.245-11.421 2.166l-.631.162a107.53 107.53 0 0 0-10.747 3.284l-.989.358a108.487 108.487 0 0 0-9.766 4.205c-.495.239-.989.461-1.476.708a110.71 110.71 0 0 0-8.64 4.913c-.64.392-1.288.759-1.911 1.16-2.644 1.706-5.203 3.616-7.676 5.587-.674.529-1.373.998-2.038 1.544a113.895 113.895 0 0 0-8.819 8.035 105.039 105.039 0 0 0-17.809 24.035v-.051l-.068.102c-.256.401-.478.81-.674 1.245a106.61 106.61 0 0 0-8.649 21.059 109.972 109.972 0 0 0-3.778 19.361 95.615 95.615 0 0 0-.682 11.898v1.706a86.242 86.242 0 0 0-53.896 6.661 91.277 91.277 0 0 0-10.627 6.115 49.314 49.314 0 0 0-5.774 4.341 82.017 82.017 0 0 0-9.024 8.256 76.64 76.64 0 0 0-7.574 9.28 84.891 84.891 0 0 0-12.521 26.756 67.734 67.734 0 0 0-10.883 4.358 79.516 79.516 0 0 0-10.627 6.405c-.358.247-.785.426-1.134.682-17.63-15.626-19.25-42.578-3.633-60.199a42.628 42.628 0 0 1 31.873-14.36zm348.913 195.865c-2.559.239-5.117.307-7.745.307H76.788c-32.957-.034-59.67-26.748-59.704-59.704a59.132 59.132 0 0 1 12.436-36.403 55.463 55.463 0 0 1 7.813-8.316 60.634 60.634 0 0 1 13.561-9.015 55.432 55.432 0 0 1 12.367-4.427 8.53 8.53 0 0 0 6.354-6.593 68.118 68.118 0 0 1 10.977-25.519 61.953 61.953 0 0 1 5.97-7.361 69.29 69.29 0 0 1 7.676-6.985 38.624 38.624 0 0 1 4.265-3.181 73.075 73.075 0 0 1 8.529-4.938 70.942 70.942 0 0 1 6.627-2.712c1.638-.58 3.309-1.041 4.99-1.493.563-.154 1.109-.341 1.706-.478 1.791-.435 3.599-.759 5.408-1.049.512-.077 1.024-.188 1.535-.256 1.629-.222 3.267-.35 4.904-.452.853-.051 1.638-.119 2.465-.136 1.603-.051 3.19 0 4.776 0 .571 0 1.143 0 1.706.077 1.595.102 3.164.281 4.725.495.589.077 1.186.136 1.766.23 1.603.264 3.19.623 4.759 1.006.495.119.998.205 1.493.333a61.1 61.1 0 0 1 5.97 1.936 8.524 8.524 0 0 0 11.028-4.887 8.501 8.501 0 0 0 .495-4.222 88.684 88.684 0 0 1-.776-12.12 81.66 81.66 0 0 1 .546-9.902 95.737 95.737 0 0 1 3.207-16.538 89.18 89.18 0 0 1 7.548-18.21c.06-.111.119-.222.171-.333.051-.111.205-.358.299-.546a87.823 87.823 0 0 1 14.96-20.146 93.283 93.283 0 0 1 67.091-28.146c2.84 0 5.672.162 8.41.384 2.448.239 4.828.537 7.19.998l.486.077c1.612.205 3.216.486 4.802.853 42.561 9.945 72.737 47.806 72.933 91.51 0 1.842-.085 3.685-.162 5.518-.205 4.708 3.446 8.683 8.154 8.887a8.45 8.45 0 0 0 3.258-.495 92.45 92.45 0 0 1 31.396-5.382c51.815-.085 93.89 41.844 93.983 93.659.085 48.931-37.46 89.717-86.239 93.675z" fill="#231f20"/></svg>