<svg xmlns="http://www.w3.org/2000/svg" viewBox="0 0 512 552" style="enable-background:new 0 0 512 552" xml:space="preserve"><path style="fill:#78b9eb" d="M22.712 240.07c-22.969 29.827-17.417 72.635 12.419 95.612a68.152 68.152 0 0 0 41.657 14.159h324.11c2.9 0 5.715-.085 8.529-.341 56.335-4.614 98.274-54.016 93.659-110.359-4.35-53.18-48.83-94.094-102.188-94a101.216 101.216 0 0 0-34.287 5.885c.085-1.962.171-3.923.171-5.885 0-47.755-33.017-89.164-79.578-99.792a58.05 58.05 0 0 0-5.544-1.024c-2.644-.512-5.288-.853-8.017-1.109-3.071-.256-6.141-.426-9.212-.426a102.27 102.27 0 0 0-73.181 30.705 96.421 96.421 0 0 0-16.376 22.091 2.973 2.973 0 0 1-.426.682v.085a97.706 97.706 0 0 0-8.273 19.958 103.416 103.416 0 0 0-3.497 17.997 90.207 90.207 0 0 0-.597 10.832 97.668 97.668 0 0 0 .853 13.306 73.477 73.477 0 0 0-26.441-4.776 76.876 76.876 0 0 0-33.093 7.506 82.475 82.475 0 0 0-9.638 5.544 45.862 45.862 0 0 0-5.203 3.923 75.753 75.753 0 0 0-8.188 7.506 69.648 69.648 0 0 0-6.738 8.273 76.064 76.064 0 0 0-12.367 28.743 64.514 64.514 0 0 0-14.244 5.118 68.681 68.681 0 0 0-15.353 10.235 62.895 62.895 0 0 0-8.957 9.552z"/><path style="fill:#41769e" d="M61.264 215.165a76.096 76.096 0 0 1 12.367-28.743 69.568 69.568 0 0 1 6.738-8.273 75.958 75.958 0 0 1 8.188-7.506 45.627 45.627 0 0 1 5.203-3.923 82.475 82.475 0 0 1 9.638-5.544 76.893 76.893 0 0 1 33.093-7.506 73.481 73.481 0 0 1 26.441 4.776 97.658 97.658 0 0 1-.853-13.306 90.207 90.207 0 0 1 .597-10.832c.631-6.09 1.8-12.111 3.497-17.997a97.66 97.66 0 0 1 8.273-19.958v-.085c.171-.205.316-.435.426-.682a96.443 96.443 0 0 1 16.376-22.091 102.269 102.269 0 0 1 73.181-30.705c3.07 0 6.141.171 9.212.426 2.729.256 5.373.597 8.017 1.109-17.903-33.085-59.235-45.392-92.32-27.498a68.115 68.115 0 0 0-35.447 54.024 58.61 58.61 0 0 0-34.458-11.003c-33.042.068-59.773 26.901-59.704 59.943a59.725 59.725 0 0 0 2.473 16.905 21.68 21.68 0 0 0-2.473-.085c-28.266.051-51.133 23.012-51.081 51.269a51.18 51.18 0 0 0 23.02 42.638 68.658 68.658 0 0 1 15.353-10.235 64.525 64.525 0 0 1 14.243-5.118z"/><path d="M213.539 507.87c0-14.139-25.598-59.728-25.598-59.728s-25.598 45.59-25.598 59.728c0 14.139 11.459 25.598 25.598 25.598s25.598-11.46 25.598-25.598zm136.522 0c0-14.139-25.598-59.728-25.598-59.728s-25.598 45.59-25.598 59.728c0 14.139 11.459 25.598 25.598 25.598 14.139-.001 25.598-11.46 25.598-25.598zM281.8 439.609c0-14.139-25.598-59.728-25.598-59.728s-25.598 45.59-25.598 59.728c0 14.139 11.459 25.598 25.598 25.598 14.13-.001 25.598-11.46 25.598-25.598zm-136.522 0c0-14.139-25.598-59.728-25.598-59.728s-25.598 45.59-25.598 59.728c0 14.139 11.459 25.598 25.598 25.598 14.139-.001 25.598-11.46 25.598-25.598zm273.044 0c0-14.139-25.598-59.728-25.598-59.728s-25.598 45.59-25.598 59.728c0 14.139 11.459 25.598 25.598 25.598 14.138-.001 25.598-11.46 25.598-25.598z" fill="#006df0"/><path style="fill:#231f20" d="M400.898 136.611a110.789 110.789 0 0 0-25.733 2.985c-2.721-49.486-37.75-91.254-86-102.547-.776-.188-1.561-.341-2.337-.495C264.686.553 217.545-10.68 181.543 11.462a76.545 76.545 0 0 0-33.963 45.896c-34.373-15.515-74.818-.23-90.333 34.142a68.281 68.281 0 0 0-6.047 28.053c0 3.028.196 6.056.589 9.058-32.624 4.307-55.576 34.236-51.269 66.86a59.539 59.539 0 0 0 18.474 35.814c-1.032 1.186-2.098 2.354-3.036 3.599A75.892 75.892 0 0 0 .025 281.607c.051 42.373 34.39 76.712 76.763 76.763h324.11c3.164 0 6.235-.094 9.229-.367 61.035-4.973 106.479-58.485 101.506-119.52-4.7-57.64-52.907-101.992-110.735-101.872zM59.729 145.14h.665a7.14 7.14 0 0 1 .853 0c4.683.503 8.887-2.883 9.399-7.565a8.524 8.524 0 0 0-.307-3.343 52.13 52.13 0 0 1-2.081-14.679c.026-28.249 22.927-51.15 51.175-51.175a50.106 50.106 0 0 1 29.477 9.382c3.821 2.746 9.152 1.876 11.907-1.945a8.478 8.478 0 0 0 1.569-4.248c3.002-32.087 30.808-56.063 62.988-54.314a59.047 59.047 0 0 1 38.202 17.007c-.537 0-1.066.085-1.604.094h-.35c-3.958.102-7.915.418-11.839.938l-.495.077c-3.821.52-7.617 1.237-11.361 2.158l-.708.179a111.78 111.78 0 0 0-10.662 3.258l-1.066.392a108.88 108.88 0 0 0-9.689 4.171l-1.535.742a109.568 109.568 0 0 0-8.589 4.87c-.648.409-1.305.776-1.953 1.194-2.627 1.706-5.177 3.608-7.676 5.57-.682.529-1.39 1.006-2.056 1.552a112.108 112.108 0 0 0-8.819 8.035 105.039 105.039 0 0 0-17.809 24.035v-.051l-.068.102c-.256.401-.478.81-.674 1.245a106.61 106.61 0 0 0-8.649 21.059 109.972 109.972 0 0 0-3.778 19.361 95.583 95.583 0 0 0-.648 11.898v1.706a86.131 86.131 0 0 0-53.896 6.661 91.277 91.277 0 0 0-10.627 6.115 49.314 49.314 0 0 0-5.774 4.341 82.017 82.017 0 0 0-9.024 8.256 76.64 76.64 0 0 0-7.574 9.28 84.891 84.891 0 0 0-12.521 26.756 67.734 67.734 0 0 0-10.883 4.358 79.516 79.516 0 0 0-10.627 6.405c-.358.247-.785.426-1.134.682-17.63-15.626-19.25-42.578-3.633-60.199a42.635 42.635 0 0 1 31.874-14.36zm348.913 195.865c-2.559.239-5.117.307-7.745.307H76.788c-32.957-.034-59.67-26.748-59.704-59.704a59.132 59.132 0 0 1 12.436-36.403 55.463 55.463 0 0 1 7.813-8.316 60.634 60.634 0 0 1 13.561-9.015 55.432 55.432 0 0 1 12.367-4.427 8.53 8.53 0 0 0 6.354-6.593 68.118 68.118 0 0 1 10.977-25.519 61.953 61.953 0 0 1 5.97-7.361 69.29 69.29 0 0 1 7.676-6.985 38.624 38.624 0 0 1 4.265-3.181 73.075 73.075 0 0 1 8.529-4.938 70.795 70.795 0 0 1 6.619-2.712c1.706-.589 3.412-1.058 5.066-1.51.537-.145 1.066-.333 1.603-.461 1.808-.435 3.625-.759 5.45-1.049.495-.077.989-.188 1.493-.256 1.638-.222 3.284-.35 4.921-.452.853-.051 1.638-.119 2.456-.136 1.603-.051 3.19 0 4.776 0 .571 0 1.143 0 1.706.077 1.586.102 3.156.281 4.717.495.589.077 1.186.136 1.766.23 1.603.264 3.181.623 4.751.998.495.128 1.006.213 1.501.35a58.47 58.47 0 0 1 5.97 1.928 8.524 8.524 0 0 0 11.028-4.887 8.501 8.501 0 0 0 .495-4.222 87.244 87.244 0 0 1-.742-12.12 81.66 81.66 0 0 1 .546-9.902 95.737 95.737 0 0 1 3.207-16.538 89.18 89.18 0 0 1 7.548-18.21c.06-.111.119-.222.171-.333s.205-.358.299-.546a87.823 87.823 0 0 1 14.96-20.146 93.283 93.283 0 0 1 67.091-28.146c2.84 0 5.672.162 8.41.384 2.448.239 4.828.537 7.19.998l.486.077c1.612.205 3.216.486 4.802.853 42.561 9.945 72.737 47.806 72.933 91.51 0 1.842-.085 3.685-.162 5.518-.205 4.708 3.446 8.683 8.154 8.887a8.45 8.45 0 0 0 3.258-.495 92.45 92.45 0 0 1 31.396-5.382c51.815-.085 93.89 41.844 93.983 93.659.086 48.93-37.459 89.716-86.238 93.674zM187.941 542c-18.849 0-34.13-15.282-34.13-34.13 0-15.581 22.227-55.965 26.69-63.909 2.679-4.113 8.183-5.265 12.296-2.585a8.894 8.894 0 0 1 2.585 2.585c4.505 7.944 26.69 48.329 26.69 63.909-.001 18.848-15.282 34.13-34.131 34.13zm0-75.838a162.603 162.603 0 0 0-17.065 41.707c0 9.429 7.637 17.065 17.065 17.065s17.065-7.637 17.065-17.065a162.924 162.924 0 0 0-17.065-41.707zM324.463 542c-18.849 0-34.13-15.282-34.13-34.13 0-15.581 22.185-55.965 26.69-63.909 2.679-4.113 8.183-5.265 12.296-2.585a8.894 8.894 0 0 1 2.585 2.585c4.505 7.944 26.69 48.329 26.69 63.909-.001 18.848-15.283 34.13-34.131 34.13zm0-75.838a162.603 162.603 0 0 0-17.065 41.707c0 9.429 7.637 17.065 17.065 17.065 9.429 0 17.065-7.637 17.065-17.065a162.924 162.924 0 0 0-17.065-41.707zm-68.261 7.577c-18.849 0-34.13-15.282-34.13-34.13 0-15.581 22.227-55.965 26.69-63.909 2.679-4.113 8.183-5.265 12.296-2.585a8.894 8.894 0 0 1 2.585 2.585c4.505 7.944 26.69 48.329 26.69 63.909-.001 18.848-15.282 34.13-34.131 34.13zm0-75.838a162.603 162.603 0 0 0-17.065 41.707c0 9.429 7.637 17.065 17.065 17.065 9.429 0 17.065-7.637 17.065-17.065a162.924 162.924 0 0 0-17.065-41.707zM119.68 473.739c-18.849 0-34.13-15.282-34.13-34.13 0-15.581 22.227-55.965 26.69-63.909 2.679-4.113 8.183-5.265 12.296-2.585a8.894 8.894 0 0 1 2.585 2.585c4.505 7.944 26.69 48.329 26.69 63.909-.001 18.848-15.282 34.13-34.131 34.13zm0-75.838a162.603 162.603 0 0 0-17.065 41.707c0 9.429 7.637 17.065 17.065 17.065s17.065-7.637 17.065-17.065a162.924 162.924 0 0 0-17.065-41.707zm273.044 75.838c-18.849 0-34.13-15.282-34.13-34.13 0-15.581 22.185-55.965 26.69-63.909 2.679-4.113 8.183-5.265 12.296-2.585a8.894 8.894 0 0 1 2.585 2.585c4.505 7.944 26.69 48.329 26.69 63.909-.001 18.848-15.283 34.13-34.131 34.13zm0-75.838a162.603 162.603 0 0 0-17.065 41.707c0 9.429 7.637 17.065 17.065 17.065 9.429 0 17.065-7.637 17.065-17.065a162.924 162.924 0 0 0-17.065-41.707z"/></svg>