<svg width="511" height="551" viewBox="0 0 511 551" fill="none" xmlns="http://www.w3.org/2000/svg">
<g clip-path="url(#clip0)">
<path d="M61.714 216.937C63.801 206.603 68.012 196.815 74.081 188.194C76.112 185.268 78.365 182.502 80.819 179.921C83.362 177.223 86.098 174.714 89.007 172.415C90.646 170.985 92.385 169.674 94.21 168.492C97.294 166.43 100.514 164.577 103.848 162.948C114.183 158.013 125.489 155.449 136.941 155.442C145.973 155.396 154.937 157.015 163.382 160.218C162.795 155.808 162.51 151.362 162.529 146.912C162.511 143.293 162.71 139.676 163.126 136.08C163.757 129.99 164.926 123.969 166.623 118.083C168.634 111.145 171.409 104.451 174.896 98.125V98.04C175.067 97.835 175.212 97.605 175.322 97.358C179.698 89.25 185.212 81.811 191.698 75.267C210.964 55.599 237.347 44.529 264.879 44.562C267.949 44.562 271.02 44.733 274.091 44.988C276.82 45.244 279.464 45.585 282.108 46.097C264.205 13.012 222.873 0.705014 189.788 18.599C169.639 29.501 156.32 49.8 154.341 72.623C144.303 65.414 132.242 61.563 119.883 61.62C86.841 61.688 60.11 88.521 60.179 121.563C60.189 127.288 61.022 132.981 62.652 138.468C61.83 138.393 61.004 138.364 60.179 138.383C31.913 138.434 9.046 161.395 9.098 189.652C9.131 206.827 17.777 222.84 32.118 232.29C36.752 228.203 41.916 224.761 47.471 222.055C52.002 219.796 56.782 218.079 61.714 216.937Z" fill="#41769E"/>
<path d="M21.733 238.984C-1.23601 268.811 4.31599 311.619 34.152 334.596C46.09 343.791 60.74 348.771 75.809 348.755H106.827H399.919C402.819 348.755 405.634 348.67 408.448 348.414C464.783 343.8 506.722 294.398 502.107 238.055C497.757 184.875 453.277 143.961 399.919 144.055C388.236 144.023 376.636 146.014 365.632 149.94C365.717 147.978 365.803 146.017 365.803 144.055C365.803 96.3001 332.786 54.8911 286.225 44.2631C284.395 43.8321 282.544 43.4901 280.681 43.2391C278.037 42.7271 275.393 42.3861 272.664 42.1301C269.593 41.8741 266.523 41.7041 263.452 41.7041C235.92 41.6711 209.537 52.7411 190.271 72.4091C183.785 78.9521 178.27 86.392 173.895 94.5C173.785 94.746 173.641 94.975 173.469 95.182V95.267C169.982 101.593 167.207 108.287 165.196 115.225C163.5 121.109 162.33 127.131 161.699 133.222C161.283 136.817 161.084 140.435 161.102 144.054C161.083 148.504 161.368 152.949 161.955 157.36C153.51 154.156 144.546 152.537 135.514 152.584C124.062 152.59 112.755 155.154 102.421 160.09C99.087 161.719 95.867 163.571 92.783 165.634C90.958 166.817 89.219 168.128 87.58 169.557C84.671 171.855 81.934 174.364 79.392 177.063C76.938 179.644 74.685 182.41 72.654 185.336C66.584 193.956 62.373 203.744 60.287 214.079C55.355 215.22 50.574 216.938 46.043 219.197C40.488 221.903 35.324 225.345 30.69 229.432C27.38 232.296 24.378 235.497 21.733 238.984Z" fill="#78B9EB"/>
<path d="M399.947 136.525C399.947 136.525 397.773 136.537 396.699 136.567C395.624 136.596 394.558 136.641 393.485 136.703C391.34 136.825 389.214 137.008 387.08 137.256C382.813 137.751 378.603 138.49 374.417 139.483L373.252 139.759L373.188 138.565C371.864 113.986 362.525 91.4811 347.493 73.5571C332.461 55.6331 311.928 42.5181 287.958 36.9371C287.204 36.7541 286.432 36.6031 285.654 36.4491L285.225 36.3641L284.997 35.9921C274.07 18.1431 257.052 6.59006 238.172 2.09106C219.292 -2.40794 198.892 0.227059 181.088 11.2281C164.411 21.4451 152.465 37.5891 147.569 56.5241L147.271 57.6751L146.19 57.1831C129.207 49.4701 110.897 49.4551 94.716 55.5711C78.536 61.6861 64.813 73.8081 57.179 90.8251C53.232 99.5421 51.216 108.899 51.221 118.468C51.22 121.463 51.412 124.426 51.802 127.395L51.932 128.388L50.941 128.516C34.826 130.6 21.289 138.987 12.12 150.945C2.951 162.902 -1.638 178.15 0.532004 194.254C2.289 207.812 8.666 220.176 18.696 229.467L19.406 230.124L18.769 230.855C17.73 232.05 16.686 233.191 15.778 234.4C5.487 247.619 -0.0249961 263.766 0.0460039 280.518C0.0280039 301.501 8.502 320.304 22.264 334.066C36.026 347.828 54.828 356.302 75.81 356.284H399.919C403.068 356.284 406.093 356.192 409.057 355.921C439.375 353.495 465.638 339.026 483.892 317.533C502.145 296.04 512.171 267.789 509.657 237.478C507.362 208.848 494.275 183.699 474.532 165.537C454.79 147.375 428.642 136.426 399.921 136.525H399.947ZM58.75 143.054H59.388C59.693 143.038 60.061 143.042 60.375 143.06C62.509 143.333 64.343 142.694 65.905 141.437C67.466 140.18 68.482 138.524 68.673 136.381C68.792 135.356 68.704 134.411 68.4 133.426C66.996 128.587 66.275 123.504 66.279 118.466C66.336 104.137 72.191 90.9741 81.576 81.5881C90.962 72.2031 104.12 66.3481 118.448 66.2921C129.172 66.2561 139.785 69.6341 148.515 75.8621C150.234 77.1511 152.144 77.5001 154.123 77.1771C156.102 76.8541 157.804 75.9151 159.027 74.1441C159.862 73.0151 160.313 71.7881 160.411 70.3881C161.972 54.1501 169.825 39.7781 181.306 29.8781C192.788 19.9781 208.161 14.3251 224.452 15.1691C239.009 16.0301 252.919 22.2231 263.301 32.4641L265.069 34.2081L262.597 34.1741C262.139 34.1681 261.602 34.2531 260.993 34.2681H260.656C256.729 34.3691 252.841 34.6791 248.947 35.1961L248.444 35.2741C244.648 35.7901 240.906 36.4961 237.19 37.4111L236.484 37.5901C232.902 38.4911 229.394 39.5631 225.92 40.8181L224.86 41.2081C221.588 42.4311 218.396 43.8051 215.258 45.3411L213.732 46.0791C210.82 47.5601 208 49.1591 205.231 50.9001C204.56 51.3221 203.91 51.6851 203.29 52.0861C200.69 53.7731 198.172 55.6531 195.683 57.6071C194.974 58.1561 194.276 58.6251 193.647 59.1431C190.587 61.6461 187.681 64.2931 184.905 67.1081C177.899 74.1741 171.987 82.1541 167.266 90.9141L165.386 94.4021V90.4391V90.3881V93.6911L167.218 90.9431L167.155 91.0381C166.92 91.4041 166.703 91.8101 166.523 92.2111C162.92 98.8541 160.061 105.815 157.955 113.073C156.129 119.356 154.881 125.762 154.21 132.271C153.75 136.189 153.536 140.108 153.569 144.053V145.759V146.981L152.373 146.739C134.318 143.095 115.73 145.393 99.108 153.32C95.464 155.102 91.959 157.12 88.587 159.376C86.589 160.659 84.678 162.099 82.89 163.662C79.71 166.162 76.742 168.876 73.971 171.823C71.234 174.685 68.748 177.732 66.492 180.987C60.831 189.029 56.667 197.928 54.119 207.428L53.975 207.964L53.443 208.125C49.737 209.246 46.173 210.674 42.718 212.42C39.048 214.256 35.548 216.367 32.211 218.754C31.762 219.051 31.347 219.221 31.1 219.419L30.474 219.922L29.846 219.361C20.907 211.38 15.894 200.394 15.227 189.322C14.559 178.25 18.216 166.743 26.128 157.751C30.249 153.117 35.335 149.395 40.863 146.905C43.628 145.659 46.573 144.687 49.553 144.042C51.042 143.719 52.579 143.47 54.105 143.305C54.868 143.223 55.648 143.16 56.418 143.118C57.188 143.076 58.696 143.055 58.696 143.055L58.75 143.054ZM407.756 340.915C405.164 341.156 402.559 341.226 399.918 341.226H237.863H75.808C59.125 341.165 43.832 334.355 32.904 323.427C21.976 312.499 15.166 297.205 15.105 280.523C15.104 267.18 19.585 254.063 27.748 243.51C30.093 240.438 32.778 237.581 35.697 235.049C39.844 231.408 44.512 228.306 49.473 225.891C53.459 223.908 57.707 222.386 62.047 221.389C65.022 220.75 67.127 218.566 67.656 215.568C69.554 206.301 73.37 197.429 78.792 189.678C80.614 187.044 82.657 184.527 84.857 182.201C87.263 179.657 89.873 177.283 92.625 175.129C93.999 173.951 95.456 172.866 96.974 171.887C99.732 170.033 102.647 168.347 105.628 166.879C107.81 165.854 110.071 164.928 112.346 164.127C114.082 163.528 115.823 163.049 117.477 162.597C117.977 162.463 118.519 162.272 119.107 162.129C120.944 161.688 122.803 161.355 124.637 161.064C125.1 160.993 125.604 160.881 126.15 160.805C127.816 160.58 129.501 160.448 131.145 160.346C131.985 160.296 132.786 160.227 133.634 160.208C135.267 160.158 136.867 160.208 138.437 160.208C139.008 160.208 139.62 160.212 140.238 160.289C141.848 160.393 143.422 160.574 144.993 160.789C145.566 160.864 146.178 160.925 146.788 161.023C148.421 161.293 150.052 161.664 151.627 162.04C152.079 162.159 152.592 162.245 153.134 162.391C155.183 162.934 157.229 163.595 159.209 164.353C161.2 165.17 163.137 165.026 164.97 164.214C166.803 163.402 168.211 162.061 168.943 160.038C169.433 158.817 169.573 157.609 169.38 156.308C168.847 152.255 168.596 148.14 168.629 144.056C168.611 140.716 168.797 137.361 169.181 134.046C169.768 128.406 170.858 122.789 172.422 117.339C174.275 110.956 176.848 104.749 180.052 98.9281C180.11 98.8221 180.154 98.7381 180.195 98.6501C180.272 98.4861 180.448 98.2011 180.52 98.0531C184.556 90.5951 189.677 83.6991 195.648 77.6801C213.444 59.4921 238.006 49.1911 263.451 49.2361C266.32 49.2371 269.208 49.4021 271.958 49.6251C274.42 49.8651 276.835 50.1691 279.225 50.6331L279.679 50.7051C281.309 50.9131 282.954 51.2021 284.567 51.5741C306.008 56.6161 324.489 68.7271 337.474 85.0201C350.46 101.313 358.143 122.034 358.272 144.058C358.271 145.923 358.186 147.789 358.109 149.619C357.972 151.767 358.726 153.556 360.081 155.032C361.436 156.509 363.157 157.414 365.309 157.464C366.32 157.519 367.238 157.379 368.186 157.026C378.344 153.407 389.132 151.557 399.916 151.586C426.028 151.587 449.878 162.17 467.011 179.245C484.145 196.319 494.81 220.131 494.901 246.243C494.905 270.902 485.431 293.691 469.842 310.624C462.045 319.093 452.634 326.203 442.173 331.389C436.942 333.982 431.387 336.125 425.646 337.728C422.776 338.529 419.825 339.204 416.847 339.737C415.358 340.003 413.844 340.236 412.331 340.433C411.574 340.531 410.809 340.621 410.046 340.701C409.283 340.781 407.768 340.913 407.768 340.913" fill="#231F20"/>
<path d="M280.617 284.491L314.484 216.758H212.884L162.083 318.358H229.817L212.884 352.225L195.95 386.092H251.492L238.284 504.626L314.484 352.225L348.351 284.491H280.617Z" fill="#FF9811"/>
<path d="M224.61 550.914L242.026 394.559H182.251L216.118 326.825H148.384L207.651 208.291H328.183L294.316 276.025H362.05L224.61 550.914ZM209.649 377.625H260.957L251.957 458.338L334.652 292.957H266.918L300.785 225.223H218.116L175.782 309.89H243.516L209.649 377.625Z" fill="#231F20"/>
</g>
<defs>
<clipPath id="clip0">
<rect width="510.039" height="550.914" fill="white"/>
</clipPath>
</defs>
</svg>
